<svg width="1648" height="483" viewBox="0 0 1648 483" fill="none" xmlns="http://www.w3.org/2000/svg">
<path d="M389.008 15.6199H457.406L543.43 218.564H478.214L461.57 175.232H382.271L364.661 218.564H304.232L389.008 15.6199ZM423.181 57.4601H422.574L396.035 136.85H447.493L423.181 57.4601Z" fill="#ED1D24"/>
<path d="M558.157 15.6199H633.952L702.661 153.43H703.292L702.349 15.6199H756.711V218.564H682.814L611.548 79.8694H610.906L612.843 218.564H558.157V15.6199Z" fill="#ED1D24"/>
<path d="M973.493 213.906C956.549 217.677 937.69 222.043 907.282 222.043C847.807 222.043 779.092 194.741 779.092 117.966C779.092 47.3088 833.413 12.0957 906.964 12.0957C929.657 12.0957 951.743 16.7916 973.181 22.5978L968.387 66.5026C949.181 56.8854 930.663 52.2532 910.173 52.2532C867.973 52.2532 840.474 80.1565 840.474 117.966C840.474 157.788 871.49 181.926 914.962 181.926C934.474 181.926 954.311 177.253 970.608 171.465L973.493 213.906Z" fill="#ED1D24"/>
<path d="M995.9 15.6199H1055.35V93.2282H1125.72V15.6199H1185.22V218.564H1125.72V131.616H1055.35V218.564H995.9V15.6199Z" fill="#ED1D24"/>
<path d="M1320.08 12.0957C1393.64 12.0957 1432.03 51.9698 1432.03 117.104C1432.03 181.614 1393 222.043 1320.08 222.043C1247.17 222.043 1208.15 181.614 1208.15 117.104C1208.15 51.9698 1246.52 12.0957 1320.08 12.0957ZM1320.08 181.926C1356.24 181.926 1370.61 150.524 1370.61 117.104C1370.61 81.9086 1356.24 52.2532 1320.08 52.2532C1283.92 52.2532 1269.57 81.9086 1269.57 117.104C1269.57 150.524 1283.92 181.926 1320.08 181.926Z" fill="#ED1D24"/>
<path d="M1454.95 15.6199H1561.15C1600.8 15.6199 1633.11 31.9279 1633.11 66.7708C1633.11 93.8123 1619.04 111.873 1590.24 117.968V118.54C1609.44 123.195 1610.72 138.578 1621.92 163.33L1643.66 218.564H1581.63L1568.83 181.928C1556.66 147.045 1548.98 138.306 1526.91 138.306H1514.45V218.564H1454.95V15.6199ZM1514.45 99.9249H1530.13C1549.32 99.9249 1573.63 99.3691 1573.63 76.388C1573.63 57.4601 1552.84 54.002 1530.13 54.002H1514.45V99.9249Z" fill="#ED1D24"/>
<path d="M4.33691 229.818H234.334V4.33716H4.33691V229.818Z" fill="#ED1D24"/>
<path fill-rule="evenodd" clip-rule="evenodd" d="M119.306 44.5403C113.678 44.5403 109.075 49.1263 109.075 54.7821C109.075 60.4785 113.678 65.0413 119.306 65.0413C124.979 65.0413 129.588 60.4785 129.588 54.7821C129.588 49.1263 124.979 44.5403 119.306 44.5403ZM184.644 169.65C179.121 176.544 160.175 196.663 119.306 205.02C78.459 196.663 59.4959 176.544 54.0481 169.65L42.6553 176.226L45.2115 136.71L80.7086 154.245L69.5818 160.675C73.7283 165.128 85.2657 175.301 104.998 176.677L109.532 101.654H78.1235V85.143H110.538L110.92 78.8917C100.909 75.3698 93.7207 65.9896 93.7207 54.7821C93.7207 40.6426 105.177 29.1807 119.305 29.1807C133.468 29.1807 144.96 40.6426 144.96 54.7821C144.96 65.9896 137.713 75.3698 127.749 78.8917L128.136 85.143H160.516V101.654H129.091L133.677 176.677C153.415 175.348 164.917 165.128 169.029 160.675L157.96 154.245L193.463 136.71L195.99 176.226L184.644 169.65Z" fill="white"/>
<path d="M1389.2 443.821C1381.63 451.802 1373.05 456.544 1362.27 458.713C1355.02 460.152 1348.68 460.488 1341.28 459.713C1331.49 458.713 1323.44 455.543 1315.54 449.697C1309.11 444.862 1304.51 439.698 1300.44 432.694C1297.34 427.31 1295.54 422.325 1294.54 416.137C1293.13 407.631 1293.48 400.136 1295.76 391.802C1300.89 372.904 1315.1 359.423 1334.31 355.433C1345.26 353.177 1355.04 353.397 1365.86 356.144C1373.58 358.186 1379.76 361.534 1385.58 367.005C1389.27 370.423 1391.9 373.829 1394.2 378.287C1396.95 383.538 1398.07 388.656 1397.74 394.572H1363.48C1362.73 390.01 1360.55 386.309 1356.85 383.492C1352.07 379.837 1345.9 379.548 1340.76 382.74C1337.25 384.932 1334.96 387.858 1333.74 391.802C1330.77 401.176 1330.64 409.845 1333.29 419.312C1334.39 423.296 1336.3 426.425 1339.3 429.218C1342.68 432.514 1346.98 433.868 1351.65 433.156C1354.53 432.717 1356.9 431.45 1358.89 429.259C1360.93 427.021 1362.1 424.58 1362.62 421.567C1363.01 419.398 1363.18 417.623 1363.33 415.472H1399.45C1400.18 426.379 1396.71 435.933 1389.2 443.821Z" fill="white"/>
<path d="M1251.12 343.044H1288.59V316.604H1251.12V343.044Z" fill="white"/>
<path d="M1251.12 456.872H1288.59V356.698H1251.12V456.872Z" fill="white"/>
<path d="M1173.55 367.295C1178.45 362.975 1183.17 359.893 1189.06 357.169C1198.75 352.687 1208.43 351.982 1218.68 354.971C1229.67 358.164 1237.61 365.919 1241.02 376.82C1242.71 382.03 1243.42 386.732 1243.42 392.203V456.875H1203.68V398.72C1203.68 396.771 1203.42 395.129 1202.84 393.267C1201.82 389.924 1199.61 387.484 1196.41 386.09C1189.35 383.117 1181.31 385.779 1177.45 392.382C1175.82 395.129 1175.04 397.836 1175.04 401.045V456.875H1136.56V356.701H1172.7L1173.55 367.295Z" fill="white"/>
<path d="M730.431 367.295C735.387 362.975 740.054 359.893 745.987 357.169C755.651 352.687 765.361 351.982 775.603 354.971C786.574 358.164 794.497 365.919 797.938 376.82C799.615 382.03 800.332 386.732 800.332 392.203V456.875H760.532V398.72C760.532 396.771 760.295 395.129 759.717 393.267C758.71 389.924 756.519 387.484 753.234 386.09C746.201 383.117 738.209 385.779 734.311 392.382C732.703 395.129 731.998 397.836 731.998 401.045V456.875H693.441V356.701H729.569L730.431 367.295Z" fill="white"/>
<path d="M966.535 420.017C969.45 420.502 971.798 421.081 974.568 422.059C976.887 422.788 978.478 424.539 978.958 426.91C979.501 429.484 978.79 431.919 976.951 433.827C975.048 435.707 972.926 436.794 970.3 437.239C966.755 437.772 963.644 437.488 960.243 436.262C958.601 435.69 957.317 434.956 956.01 433.874C954.263 432.387 953.113 430.699 952.505 428.553C951.927 426.778 951.684 425.141 951.73 423.233H915.036V425.361C915.036 428.796 915.568 431.699 916.812 434.978C918.639 439.807 921.166 443.601 925.001 447.163C929.974 451.778 935.098 454.704 941.668 456.543C955.212 460.395 967.42 461.152 981.381 459.047C987.921 458.024 993.294 456.277 999.187 453.218C1001.8 451.864 1003.86 450.494 1006.09 448.609C1016.03 440.322 1019.72 427.599 1015.74 415.275C1014.23 410.62 1011.88 407.034 1008.15 403.883C1003.08 399.493 998.019 396.706 991.571 394.821C990.183 394.423 988.986 394.045 987.534 393.711C979.686 391.473 972.949 390.056 964.858 388.882C962.701 388.523 960.862 388.171 958.78 387.708C957.78 387.466 956.982 387.153 956.033 386.777C953.766 385.759 952.783 383.117 953.824 380.861C953.881 380.683 953.922 380.619 953.992 380.479C955.166 378.334 956.981 376.934 959.353 376.223C963.511 375.008 967.42 375.141 971.497 376.518C975.43 377.843 977.917 381.48 977.749 385.597H1013.11C1013.06 381.254 1012.45 377.599 1010.93 373.545C1009.43 369.405 1007.14 366.276 1003.73 363.529C1000.71 361.135 997.84 359.516 994.283 358.14C990.79 356.787 987.713 355.901 984.006 355.283C975.256 353.773 967.686 353.334 958.844 353.819C953.766 354.107 949.544 354.796 944.501 355.97C937.88 357.519 932.501 360.094 927.071 364.327C922.508 367.912 919.495 372.145 917.61 377.599C916.725 380.103 916.314 382.318 916.147 384.961C915.979 389.344 916.655 393.091 918.228 397.192C921.166 404.484 926.354 409.672 933.652 412.615C937.4 414.102 940.627 415.055 944.501 415.83C952.262 417.427 958.78 418.687 966.535 420.017Z" fill="white"/>
<path d="M527.982 413.658H502.293V380.811H518.995C522.187 380.811 524.848 380.729 528.028 380.545C532.424 380.302 536.09 378.33 538.687 374.785C540.092 372.906 540.879 371.038 541.202 368.69C541.474 366.741 541.486 365.058 541.335 363.104C540.607 355.817 534.552 350.34 527.184 350.34H502.293V456.876H459.694V316.608H529.301C532.059 316.608 534.384 316.673 537.154 316.81C555.608 317.828 570.847 328.086 578.637 344.822C582.714 353.509 584.09 361.911 583.026 371.459C580.817 391.607 566.747 407.273 546.974 411.617C540.381 413.056 534.708 413.658 527.982 413.658Z" fill="white"/>
<path d="M1086.77 354.749C1082.75 354.107 1079.38 353.818 1075.39 353.818C1071.37 353.818 1068.02 354.107 1064.04 354.749C1052.54 356.548 1043.21 361.134 1034.81 369.218C1025.8 377.841 1020.94 388.083 1019.78 400.516C1019.1 408.121 1019.72 414.696 1021.73 422.058C1024.9 433.381 1030.8 442.096 1040.13 449.25C1046.24 453.946 1052.34 456.768 1059.89 458.427C1065.24 459.578 1069.9 460.07 1075.39 460.07C1080.87 460.07 1085.53 459.578 1090.88 458.427C1098.44 456.768 1104.52 453.946 1110.68 449.25L1089.14 425.759C1085.74 433.381 1076.8 436.776 1069.18 433.358C1065.73 431.784 1063.18 429.264 1061.63 425.759C1060.15 422.55 1059.27 419.6 1058.8 416.142C1057.72 409.092 1057.89 402.951 1059.22 395.953C1059.92 392.339 1061.16 389.39 1063.17 386.29C1067.57 379.553 1076.66 377.621 1083.4 382.034C1085.13 383.23 1086.47 384.515 1087.61 386.29C1089.67 389.39 1090.85 392.339 1091.58 395.953C1092.9 402.951 1093.04 409.092 1092.02 416.142C1091.45 419.6 1090.61 422.55 1089.14 425.759L1110.68 449.25C1120.02 442.096 1125.92 433.381 1129.05 422.058C1131.08 414.696 1131.69 408.121 1130.99 400.516C1129.88 388.083 1124.97 377.841 1115.96 369.218C1107.56 361.134 1098.24 356.548 1086.77 354.749Z" fill="white"/>
<path d="M910.982 448.983C910.415 440.743 910.109 433.739 909.953 425.446C909.716 414.546 909.6 405.391 909.49 394.513C909.461 388.614 908.831 383.676 907.339 378.003C905.43 370.531 901.041 364.857 894.303 361.133C890.284 358.849 886.594 357.479 882.037 356.501C867.574 353.401 854.81 353.135 840.294 355.68C836.206 356.368 832.782 357.392 828.925 358.942C820.071 362.596 813.952 369.287 811.147 378.442C810.048 381.97 809.707 385.156 810.147 388.77C810.227 389.436 810.43 390.031 810.696 390.632L844.406 391.431C844.314 389.326 844.603 387.51 845.332 385.492C846.419 382.386 848.605 380.189 851.705 379.084C856.204 377.465 860.593 377.355 865.15 378.865C868.129 379.837 870.292 382.034 871.275 385.07C871.83 386.978 871.558 388.84 870.378 390.407C869.407 391.876 868.164 392.848 866.556 393.443C865.538 393.802 864.676 394.132 863.641 394.374C858.951 395.665 854.943 396.526 850.166 397.324C846.378 397.949 843.198 398.544 839.427 399.273C834.332 400.296 830.064 401.401 825.16 402.997C820.591 404.459 817.011 406.525 813.53 409.78C808.99 413.944 806.405 418.866 805.497 424.961C804.953 429.061 805.086 432.629 805.966 436.666C808.331 447.145 815.612 454.813 825.877 457.803C837.287 461.134 848.003 460.602 858.986 456.143C864.387 453.945 868.464 451.008 872.142 446.526L869.771 429.327C868.042 431.918 865.949 433.74 863.109 435.023C860.432 436.197 858.026 436.816 855.099 437.082C852.705 437.348 850.565 437.197 848.217 436.533C846.297 435.995 844.829 435.133 843.475 433.647C842.342 432.409 841.619 431.126 841.312 429.483C840.792 426.91 841.578 424.499 843.55 422.833C844.881 421.682 846.188 420.93 847.807 420.375C851.728 418.888 855.053 417.825 859.032 416.714C863.896 415.275 867.909 413.835 872.495 411.706C872.975 415.407 872.94 418.559 872.397 422.191C872.056 424.874 871.275 427.049 869.771 429.327L872.142 446.526C872.871 449.007 873.524 451.043 874.38 453.443C874.866 454.813 875.497 455.791 876.439 456.872H913.544C911.977 454.414 911.173 451.91 910.982 448.983Z" fill="white"/>
<path d="M686.063 448.983C685.484 440.743 685.184 433.739 684.987 425.446C684.831 414.546 684.663 405.391 684.577 394.513C684.53 388.614 683.923 383.676 682.437 378.003C680.523 370.531 676.122 364.857 669.459 361.133C665.371 358.849 661.612 357.479 657.095 356.501C642.677 353.401 629.902 353.135 615.358 355.68C611.257 356.368 607.868 357.392 604.034 358.942C595.157 362.596 589.056 369.287 586.193 378.442C585.1 381.97 584.823 385.156 585.222 388.77C585.308 389.436 585.459 390.031 585.782 390.632L619.493 391.431C619.406 389.326 619.712 387.51 620.401 385.492C621.534 382.386 623.657 380.189 626.745 379.084C631.308 377.465 635.628 377.355 640.225 378.865C643.227 379.837 645.367 382.034 646.332 385.07C646.888 386.978 646.633 388.84 645.5 390.407C644.459 391.876 643.227 392.848 641.631 393.443C640.63 393.802 639.763 394.132 638.745 394.374C634.032 395.665 630.053 396.526 625.264 397.324C621.482 397.949 618.272 398.544 614.496 399.273C609.413 400.296 605.121 401.401 600.188 402.997C595.666 404.459 592.109 406.525 588.622 409.78C584.053 413.944 581.474 418.866 580.589 424.961C580.011 429.061 580.144 432.629 581.075 436.666C583.411 447.145 590.658 454.813 600.975 457.803C612.368 461.134 623.072 460.602 634.089 456.143C639.474 453.945 643.562 451.008 647.217 446.526L644.858 429.327C643.163 431.918 641.035 433.74 638.178 435.023C635.506 436.197 633.112 436.816 630.186 437.082C627.78 437.348 625.669 437.197 623.315 436.533C621.413 435.995 619.926 435.133 618.573 433.647C617.411 432.409 616.722 431.126 616.358 429.483C615.849 426.91 616.699 424.499 618.66 422.833C619.967 421.682 621.256 420.93 622.887 420.375C626.785 418.888 630.157 417.825 634.136 416.714C638.993 415.275 642.995 413.835 647.587 411.706C648.027 415.407 648.004 418.559 647.506 422.191C647.13 424.874 646.332 427.049 644.858 429.327L647.217 446.526C647.975 449.007 648.628 451.043 649.478 453.443C649.97 454.813 650.542 455.791 651.52 456.872H688.665C687.115 454.414 686.283 451.91 686.063 448.983Z" fill="white"/>
<path d="M295.704 383.139H304.946V413.616H305.165C307.993 409.024 313.013 405.548 321.728 405.548C336.285 405.548 343.375 417.473 343.375 430.901C343.375 444.664 336.99 458.023 321.856 458.023C312.903 458.023 307.23 453.484 304.743 449.777H304.547V456.855H295.704V383.139ZM319.797 413.014C309.763 413.014 304.946 422.568 304.946 431.901C304.946 440.252 309.289 450.534 319.681 450.534C329.611 450.534 333.757 439.454 333.543 431.589C333.757 422.568 329.802 413.014 319.797 413.014Z" fill="white"/>
<path d="M352.007 470.393C353.205 470.791 354.743 471.214 356.322 471.214C364.586 471.214 367.333 459.781 367.333 458.804C367.333 457.74 366.159 455.166 365.557 453.483L348.572 406.745H358.67L372.139 448.186H372.341L386.122 406.745H395.422L376.962 457.942C373.538 467.559 369.872 478.663 357.704 478.663C354.743 478.663 353.106 478.24 351.406 477.974L352.007 470.393Z" fill="white"/>
</svg>
