<svg width="1106" height="324" viewBox="0 0 1106 324" fill="none" xmlns="http://www.w3.org/2000/svg">
<path d="M261.072 10.4805H306.975L364.707 146.617H320.939L309.769 117.549H256.55L244.732 146.617H204.178L261.072 10.4805ZM284.006 38.5472H283.598L265.788 91.8023H300.322L284.006 38.5472Z" fill="#ED1D24"/>
<path d="M374.59 10.4805H425.457L471.569 102.924H471.992L471.359 10.4805H507.843V146.617H458.249L410.421 53.5795H409.99L411.29 146.617H374.59V10.4805Z" fill="#ED1D24"/>
<path d="M653.329 143.493C641.957 146.023 629.301 148.952 608.894 148.952C568.98 148.952 522.863 130.637 522.863 79.1357C522.863 31.7384 559.319 8.11719 608.68 8.11719C623.91 8.11719 638.732 11.2672 653.12 15.162L649.902 44.6138C637.013 38.1625 624.585 35.0551 610.834 35.0551C582.513 35.0551 564.058 53.7729 564.058 79.1357C564.058 105.849 584.873 122.041 614.048 122.041C627.143 122.041 640.455 118.906 651.393 115.023L653.329 143.493Z" fill="#ED1D24"/>
<path d="M668.365 10.4805H708.264V62.5407H755.49V10.4805H795.42V146.617H755.49V88.2916H708.264V146.617H668.365V10.4805Z" fill="#ED1D24"/>
<path d="M885.929 8.11719C935.298 8.11719 961.057 34.865 961.057 78.5577C961.057 121.831 934.863 148.951 885.929 148.951C836.995 148.951 810.809 121.831 810.809 78.5577C810.809 34.865 836.564 8.11719 885.929 8.11719ZM885.929 122.041C910.194 122.041 919.839 100.976 919.839 78.5577C919.839 54.9482 910.194 35.0551 885.929 35.0551C861.664 35.0551 852.031 54.9482 852.031 78.5577C852.031 100.976 861.664 122.041 885.929 122.041Z" fill="#ED1D24"/>
<path d="M976.441 10.4805H1047.71C1074.32 10.4805 1096.01 21.42 1096.01 44.7929C1096.01 62.9325 1086.56 75.0475 1067.23 79.1363V79.5202C1080.12 82.643 1080.98 92.9619 1088.5 109.565L1103.09 146.617H1061.45L1052.87 122.041C1044.7 98.6412 1039.55 92.7795 1024.73 92.7795H1016.37V146.617H976.441V10.4805ZM1016.37 67.0329H1026.9C1039.77 67.0329 1056.09 66.6601 1056.09 51.2442C1056.09 38.5472 1042.13 36.2275 1026.9 36.2275H1016.37V67.0329Z" fill="#ED1D24"/>
<path d="M2.91016 154.168H157.265V2.91406H2.91016V154.168Z" fill="#ED1D24"/>
<path fill-rule="evenodd" clip-rule="evenodd" d="M80.0663 29.8757C76.2899 29.8757 73.2004 32.9519 73.2004 36.7459C73.2004 40.5671 76.2899 43.6278 80.0663 43.6278C83.8737 43.6278 86.967 40.5671 86.967 36.7459C86.967 32.9519 83.8737 29.8757 80.0663 29.8757ZM123.916 113.8C120.209 118.425 107.495 131.921 80.0663 137.526C52.6534 131.921 39.927 118.425 36.2709 113.8L28.625 118.211L30.3405 91.704L54.1632 103.466L46.6958 107.78C49.4786 110.767 57.2216 117.591 70.4642 118.514L73.507 68.1877H52.4283V57.1122H74.1824L74.4385 52.9188C67.7202 50.5563 62.8958 44.264 62.8958 36.7459C62.8958 27.261 70.5845 19.5723 80.0662 19.5723C89.5712 19.5723 97.2832 27.261 97.2832 36.7459C97.2832 44.264 92.42 50.5563 85.7328 52.9188L85.9928 57.1122H107.724V68.1877H86.6332L89.711 118.514C102.957 117.622 110.677 110.767 113.437 107.78L106.008 103.466L129.835 91.704L131.531 118.211L123.916 113.8Z" fill="white"/>
<path d="M932.314 297.723C927.234 303.076 921.478 306.257 914.244 307.712C909.377 308.677 905.123 308.903 900.159 308.383C893.588 307.712 888.181 305.586 882.88 301.664C878.568 298.421 875.478 294.956 872.75 290.259C870.67 286.647 869.462 283.303 868.787 279.152C867.844 273.446 868.081 268.418 869.606 262.828C873.049 250.151 882.585 241.108 895.478 238.431C902.825 236.918 909.392 237.066 916.654 238.908C921.835 240.278 925.98 242.524 929.889 246.194C932.365 248.486 934.127 250.771 935.676 253.762C937.519 257.284 938.272 260.718 938.051 264.686H915.055C914.554 261.625 913.091 259.143 910.607 257.253C907.401 254.802 903.26 254.608 899.81 256.749C897.45 258.219 895.913 260.182 895.098 262.827C893.107 269.116 893.017 274.931 894.795 281.281C895.536 283.954 896.817 286.053 898.828 287.927C901.094 290.138 903.986 291.046 907.118 290.568C909.051 290.274 910.642 289.424 911.973 287.954C913.343 286.453 914.131 284.815 914.48 282.794C914.74 281.34 914.853 280.149 914.954 278.706H939.2C939.685 286.022 937.356 292.431 932.314 297.723Z" fill="white"/>
<path d="M839.648 230.119H864.795V212.383H839.648V230.119Z" fill="white"/>
<path d="M839.648 306.473H864.795V239.275H839.648V306.473Z" fill="white"/>
<path d="M787.59 246.388C790.881 243.491 794.048 241.423 798.003 239.596C804.504 236.589 811.001 236.116 817.882 238.122C825.253 240.263 830.585 245.465 832.875 252.778C834.005 256.273 834.482 259.427 834.482 263.097V306.479H807.811V267.469C807.811 266.161 807.636 265.06 807.248 263.81C806.561 261.568 805.082 259.931 802.936 258.996C798.197 257.002 792.798 258.787 790.209 263.217C789.115 265.06 788.595 266.875 788.595 269.028V306.479H762.766V239.282H787.023L787.59 246.388Z" fill="white"/>
<path d="M490.205 246.388C493.531 243.491 496.663 241.423 500.645 239.596C507.131 236.589 513.647 236.116 520.521 238.122C527.883 240.263 533.201 245.465 535.51 252.778C536.636 256.273 537.117 259.427 537.117 263.097V306.479H510.406V267.469C510.406 266.161 510.247 265.06 509.859 263.81C509.184 261.568 507.713 259.931 505.508 258.996C500.789 257.002 495.425 258.787 492.809 263.217C491.73 265.06 491.257 266.875 491.257 269.028V306.479H465.381V239.282H489.627L490.205 246.388Z" fill="white"/>
<path d="M648.658 281.747C650.614 282.073 652.19 282.461 654.049 283.117C655.605 283.606 656.672 284.781 656.994 286.372C657.359 288.098 656.882 289.731 655.648 291.011C654.371 292.272 652.946 293.002 651.184 293.3C648.805 293.658 646.717 293.467 644.435 292.645C643.333 292.261 642.471 291.768 641.594 291.043C640.422 290.045 639.649 288.913 639.242 287.474C638.854 286.283 638.691 285.185 638.722 283.905H614.096V285.332C614.096 287.637 614.453 289.584 615.287 291.784C616.514 295.023 618.21 297.568 620.783 299.957C624.121 303.053 627.56 305.016 631.969 306.249C641.058 308.833 649.251 309.341 658.621 307.929C663.01 307.243 666.616 306.071 670.571 304.019C672.321 303.111 673.707 302.192 675.205 300.927C681.877 295.368 684.353 286.833 681.683 278.567C680.666 275.444 679.09 273.039 676.583 270.925C673.183 267.98 669.787 266.11 665.459 264.846C664.528 264.579 663.724 264.326 662.75 264.101C657.483 262.6 652.962 261.65 647.532 260.862C646.084 260.621 644.85 260.385 643.453 260.075C642.782 259.912 642.246 259.702 641.609 259.45C640.088 258.767 639.428 256.995 640.127 255.482C640.165 255.362 640.193 255.319 640.239 255.225C641.027 253.786 642.246 252.847 643.837 252.37C646.628 251.555 649.251 251.644 651.988 252.568C654.627 253.457 656.296 255.896 656.183 258.659H679.917C679.878 255.745 679.474 253.293 678.45 250.574C677.444 247.796 675.911 245.698 673.621 243.855C671.592 242.249 669.666 241.163 667.28 240.24C664.935 239.332 662.871 238.738 660.383 238.323C654.51 237.311 649.43 237.016 643.496 237.341C640.088 237.535 637.255 237.997 633.87 238.784C629.426 239.824 625.817 241.55 622.172 244.39C619.11 246.795 617.088 249.635 615.823 253.293C615.229 254.973 614.953 256.459 614.841 258.231C614.728 261.172 615.182 263.686 616.238 266.436C618.21 271.328 621.691 274.808 626.589 276.782C629.104 277.78 631.27 278.419 633.87 278.939C639.079 280.01 643.453 280.855 648.658 281.747Z" fill="white"/>
<path d="M354.339 277.485H337.099V255.45H348.307C350.45 255.45 352.235 255.395 354.37 255.272C357.32 255.11 359.78 253.787 361.523 251.409C362.466 250.148 362.994 248.895 363.211 247.32C363.394 246.012 363.401 244.884 363.3 243.572C362.811 238.685 358.748 235.011 353.803 235.011H337.099V306.475H308.51V212.383H355.224C357.075 212.383 358.635 212.427 360.494 212.518C372.879 213.201 383.106 220.083 388.334 231.309C391.07 237.136 391.994 242.773 391.28 249.177C389.797 262.693 380.354 273.202 367.085 276.115C362.66 277.081 358.853 277.485 354.339 277.485Z" fill="white"/>
<path d="M729.349 237.968C726.652 237.537 724.389 237.344 721.711 237.344C719.014 237.344 716.766 237.537 714.096 237.968C706.377 239.175 700.116 242.251 694.481 247.674C688.434 253.458 685.174 260.329 684.394 268.669C683.939 273.77 684.355 278.181 685.701 283.12C687.828 290.715 691.787 296.561 698.048 301.36C702.154 304.51 706.245 306.403 711.31 307.516C714.9 308.288 718.028 308.618 721.711 308.618C725.39 308.618 728.519 308.288 732.109 307.516C737.182 306.403 741.265 304.51 745.398 301.36L730.941 285.602C728.658 290.715 722.662 292.992 717.547 290.7C715.23 289.644 713.518 287.953 712.482 285.602C711.488 283.449 710.898 281.471 710.58 279.151C709.858 274.422 709.967 270.302 710.859 265.608C711.329 263.184 712.163 261.205 713.51 259.126C716.464 254.607 722.565 253.311 727.09 256.271C728.247 257.074 729.147 257.935 729.916 259.126C731.298 261.205 732.089 263.184 732.578 265.608C733.463 270.302 733.56 274.422 732.873 279.151C732.489 281.471 731.93 283.449 730.941 285.602L745.398 301.36C751.666 296.561 755.625 290.715 757.725 283.12C759.091 278.181 759.494 273.77 759.025 268.669C758.28 260.329 754.985 253.458 748.938 247.674C743.302 242.251 737.046 239.175 729.349 237.968Z" fill="white"/>
<path d="M611.377 301.19C610.996 295.662 610.791 290.964 610.686 285.401C610.527 278.088 610.449 271.947 610.376 264.65C610.356 260.694 609.933 257.381 608.932 253.575C607.651 248.563 604.705 244.757 600.184 242.259C597.486 240.727 595.01 239.807 591.952 239.152C582.245 237.073 573.679 236.894 563.937 238.601C561.193 239.063 558.896 239.749 556.307 240.789C550.365 243.241 546.258 247.729 544.376 253.87C543.639 256.236 543.41 258.374 543.705 260.798C543.758 261.245 543.895 261.644 544.073 262.047L566.697 262.583C566.635 261.171 566.829 259.953 567.318 258.599C568.047 256.516 569.514 255.042 571.595 254.301C574.614 253.214 577.56 253.141 580.619 254.153C582.617 254.805 584.069 256.279 584.729 258.316C585.101 259.596 584.919 260.845 584.127 261.896C583.475 262.882 582.641 263.533 581.562 263.933C580.879 264.174 580.3 264.395 579.606 264.558C576.458 265.423 573.768 266.001 570.562 266.536C568.02 266.955 565.886 267.354 563.355 267.843C559.936 268.53 557.071 269.271 553.78 270.342C550.714 271.323 548.312 272.708 545.975 274.892C542.928 277.685 541.193 280.986 540.584 285.075C540.219 287.826 540.308 290.219 540.899 292.927C542.486 299.956 547.372 305.1 554.261 307.106C561.919 309.34 569.111 308.983 576.481 305.992C580.106 304.518 582.842 302.548 585.311 299.541L583.72 288.004C582.559 289.742 581.154 290.964 579.249 291.825C577.452 292.613 575.837 293.028 573.873 293.206C572.266 293.384 570.83 293.283 569.254 292.838C567.966 292.477 566.98 291.899 566.072 290.902C565.311 290.072 564.826 289.211 564.62 288.109C564.271 286.383 564.799 284.765 566.122 283.648C567.015 282.876 567.892 282.372 568.979 281.999C571.61 281.002 573.842 280.288 576.512 279.543C579.776 278.578 582.47 277.612 585.548 276.184C585.87 278.667 585.846 280.781 585.482 283.217C585.253 285.017 584.729 286.476 583.72 288.004L585.311 299.541C585.8 301.205 586.238 302.571 586.813 304.181C587.139 305.1 587.562 305.756 588.195 306.481H613.096C612.045 304.833 611.505 303.153 611.377 301.19Z" fill="white"/>
<path d="M460.43 301.19C460.042 295.662 459.84 290.964 459.708 285.401C459.603 278.088 459.491 271.947 459.433 264.65C459.402 260.694 458.994 257.381 457.997 253.575C456.712 248.563 453.758 244.757 449.287 242.259C446.543 240.727 444.02 239.807 440.989 239.152C431.313 237.073 422.74 236.894 412.979 238.601C410.227 239.063 407.953 239.749 405.379 240.789C399.422 243.241 395.327 247.729 393.406 253.87C392.672 256.236 392.486 258.374 392.754 260.798C392.812 261.245 392.913 261.644 393.13 262.047L415.754 262.583C415.696 261.171 415.901 259.953 416.363 258.599C417.124 256.516 418.548 255.042 420.621 254.301C423.683 253.214 426.582 253.141 429.668 254.153C431.682 254.805 433.118 256.279 433.766 258.316C434.139 259.596 433.968 260.845 433.207 261.896C432.509 262.882 431.682 263.533 430.611 263.933C429.939 264.174 429.357 264.395 428.674 264.558C425.511 265.423 422.841 266.001 419.627 266.536C417.089 266.955 414.935 267.354 412.4 267.843C408.989 268.53 406.109 269.271 402.798 270.342C399.763 271.323 397.376 272.708 395.036 274.892C391.97 277.685 390.239 280.986 389.645 285.075C389.257 287.826 389.346 290.219 389.971 292.927C391.539 299.956 396.402 305.1 403.326 307.106C410.972 309.34 418.156 308.983 425.55 305.992C429.163 304.518 431.907 302.548 434.36 299.541L432.777 288.004C431.639 289.742 430.211 290.964 428.294 291.825C426.501 292.613 424.894 293.028 422.93 293.206C421.315 293.384 419.899 293.283 418.319 292.838C417.042 292.477 416.045 291.899 415.137 290.902C414.357 290.072 413.895 289.211 413.65 288.109C413.309 286.383 413.879 284.765 415.195 283.648C416.072 282.876 416.937 282.372 418.032 281.999C420.648 281.002 422.911 280.288 425.581 279.543C428.841 278.578 431.527 277.612 434.609 276.184C434.903 278.667 434.888 280.781 434.554 283.217C434.302 285.017 433.766 286.476 432.777 288.004L434.36 299.541C434.869 301.205 435.307 302.571 435.878 304.181C436.208 305.1 436.592 305.756 437.248 306.481H462.177C461.136 304.833 460.578 303.153 460.43 301.19Z" fill="white"/>
<path d="M198.451 257.014H204.653V277.458H204.801C206.699 274.377 210.068 272.046 215.917 272.046C225.686 272.046 230.444 280.045 230.444 289.053C230.444 298.286 226.159 307.247 216.002 307.247C209.994 307.247 206.186 304.202 204.518 301.715H204.385V306.463H198.451V257.014ZM214.62 277.054C207.886 277.054 204.653 283.463 204.653 289.724C204.653 295.326 207.568 302.223 214.543 302.223C221.207 302.223 223.989 294.79 223.846 289.514C223.989 283.463 221.335 277.054 214.62 277.054Z" fill="white"/>
<path d="M236.239 315.541C237.042 315.808 238.075 316.092 239.134 316.092C244.681 316.092 246.524 308.423 246.524 307.767C246.524 307.054 245.736 305.327 245.333 304.198L233.934 272.846H240.71L249.749 300.645H249.885L259.134 272.846H265.375L252.986 307.189C250.689 313.64 248.228 321.089 240.062 321.089C238.075 321.089 236.976 320.805 235.835 320.627L236.239 315.541Z" fill="white"/>
</svg>
